<?xml version="1.0" encoding="UTF-8"?>
<svg id="Layer_1" data-name="Layer 1" xmlns="http://www.w3.org/2000/svg" viewBox="0 0 466.52 82.35">
  <defs>
    <style>
      .cls-1 {
        fill: #231f20;
      }
    </style>
  </defs>
  <path class="cls-1" d="M28.93,63.03c.52.71.79,1.54.79,2.47,0,.79-.3,1.57-.9,2.36-.45.6-1.16.97-2.13,1.12-.08,0-.17.01-.28.03s-.21.03-.28.03c-.49,0-1.01-.17-1.57-.51L0,41.01v-6.29L24.49,7.08c.9-.45,1.5-.67,1.8-.67h.22c.67.11,1.27.45,1.8,1.01.52.49.86,1.27,1.01,2.36,0,.08,0,.18.03.31.02.13.03.23.03.31,0,.56-.15,1.18-.45,1.85L5.84,37.86l23.09,25.17Z"/>
  <path class="cls-1" d="M84.54,72.24c0,.82-.34,1.61-1.01,2.36l-6.07,6.85c-.56.6-1.27.9-2.13.9h-12.53c-.79,0-1.5-.34-2.13-1.01l-6.07-6.85,4.27-4.72,5.22,5.96h10l4.27-4.83V20.67h6.18v51.57ZM78.36.11h6.29v6.85h-6.29V.11Z"/>
  <path class="cls-1" d="M121.73,1.35c.67-.75,1.35-1.12,2.02-1.12s1.14.08,1.4.22c1.01.45,1.52,1.5,1.52,3.15v64.94h-6.07V11.91l-9.66,11.01-4.27-4.38L121.73,1.35Z"/>
  <path class="cls-1" d="M163.18,20.67h-5.95v-3.59c0-.9.3-1.68.9-2.36l12.25-13.71c.6-.67,1.31-1.01,2.13-1.01h17.58c.82,0,1.53.34,2.13,1.01l6.18,6.85c.6.64.9,1.42.9,2.36v14.15c0,.9-.3,1.69-.9,2.36l-31.06,35.28h31.96v6.74h-39.32c-.79,0-1.5-.34-2.13-1.01-.6-.64-.9-1.42-.9-2.36s.3-1.72.9-2.36l35.5-40v-11.46l-4.38-4.83h-15.28l-10.5,11.68v2.25Z"/>
  <path class="cls-1" d="M217.5,48.2v8.87l4.32,5.06h26.63v6.29h-27.81c-.86,0-1.54-.3-2.02-.9l-6.29-6.74c-.52-.56-.79-1.35-.79-2.36v-27.19c0-.68.34-1.42,1.01-2.25l6.12-7.08c.75-.82,1.5-1.24,2.25-1.24h18.31c.75,0,1.46.41,2.13,1.24l5.95,6.97c.6.64.9,1.39.9,2.25v17.08h-30.73ZM217.61,41.23h24.77v-8.76l-4.38-4.94h-15.95l-4.44,5.05v8.65Z"/>
  <path class="cls-1" d="M296.65,32.36l-4.44-4.94h-15.56l-2.92,3.37,28.2,24.83c.75.67,1.12,1.5,1.12,2.47s-.32,1.87-.96,2.58l-6.35,6.97c-.6.67-1.31,1.01-2.13,1.01h-18.2c-.82,0-1.54-.34-2.13-1.01l-6.24-6.74c-.6-.64-.9-1.46-.9-2.47v-3.15h6.07v1.69l4.44,4.94h15.78l3.03-3.37-28.14-24.72c-.64-.49-1.01-1.31-1.12-2.47v-.39c0-.82.28-1.55.84-2.19l6.07-7.08c.64-.68,1.37-1.01,2.19-1.01h18.14c.79,0,1.48.34,2.08,1.01l6.29,6.85c.6.64.9,1.42.9,2.36v3.6h-6.07v-2.13Z"/>
  <path class="cls-1" d="M376.58,60.89l-.73-1.52v-1.69l.73-1.52,36.91-41.01,1.35-.9h1.57l1.4.9.73,1.52v1.69l-.73,1.52-36.91,41.01-1.4.9h-1.57l-1.35-.9Z"/>
  <path class="cls-1" d="M437.59,12.36c-.52-.71-.79-1.54-.79-2.47,0-.79.3-1.57.9-2.36.45-.6,1.16-.97,2.13-1.12.07,0,.17,0,.28-.03.11-.02.21-.03.28-.03.49,0,1.01.17,1.57.51l24.55,27.52v6.29l-24.43,27.64c-.9.45-1.52.67-1.85.67h-.17c-.71-.11-1.33-.45-1.85-1.01-.52-.49-.86-1.27-1.01-2.36,0-.07,0-.18-.03-.31-.02-.13-.03-.23-.03-.31,0-.56.15-1.18.45-1.85l23.09-25.62-23.09-25.17Z"/>
</svg>